# Wavefront OBJ file automatically generated by Tiled2Unity

# Vertices (Count = 132)
v 0 -4.571429 0
v -4.571429 -4.571429 0
v -4.571429 0 0
v 0 0 0
v -9.142858 -4.571429 0
v -9.142858 0 0
v -13.71429 -4.571429 0
v -13.71429 0 0
v -18.28572 -4.571429 0
v -18.28572 0 0
v -22.85714 -4.571429 0
v -22.85714 0 0
v -27.42857 -4.571429 0
v -27.42857 0 0
v -32 -4.571429 0
v -32 0 0
v -36.57143 -4.571429 0
v -36.57143 0 0
v -41.14286 -4.571429 0
v -41.14286 0 0
v -45.71429 -4.571429 0
v -45.71429 0 0
v -50.28572 -4.571429 0
v -50.28572 0 0
v 0 -9.142858 0
v -4.571429 -9.142858 0
v -45.71429 -9.142858 0
v -50.28572 -9.142858 0
v 0 -13.71429 0
v -4.571429 -13.71429 0
v -45.71429 -13.71429 0
v -50.28572 -13.71429 0
v 0 -18.28572 0
v -4.571429 -18.28572 0
v -9.142858 -18.28572 0
v -9.142858 -13.71429 0
v -13.71429 -18.28572 0
v -13.71429 -13.71429 0
v -18.28572 -18.28572 0
v -18.28572 -13.71429 0
v -22.85714 -18.28572 0
v -22.85714 -13.71429 0
v -27.42857 -18.28572 0
v -27.42857 -13.71429 0
v -32 -18.28572 0
v -32 -13.71429 0
v -36.57143 -18.28572 0
v -36.57143 -13.71429 0
v -41.14286 -18.28572 0
v -41.14286 -13.71429 0
v -45.71429 -18.28572 0
v -50.28572 -18.28572 0
v 0 -22.85714 0
v -4.571429 -22.85714 0
v -9.142858 -22.85714 0
v -13.71429 -22.85714 0
v -18.28572 -22.85714 0
v -22.85714 -22.85714 0
v -27.42857 -22.85714 0
v -32 -22.85714 0
v -36.57143 -22.85714 0
v -41.14286 -22.85714 0
v -45.71429 -22.85714 0
v -50.28572 -22.85714 0
v 0 -27.42857 0
v -4.571429 -27.42857 0
v -9.142858 -27.42857 0
v -13.71429 -27.42857 0
v -18.28572 -27.42857 0
v -22.85714 -27.42857 0
v -27.42857 -27.42857 0
v -32 -27.42857 0
v -36.57143 -27.42857 0
v -41.14286 -27.42857 0
v -45.71429 -27.42857 0
v -50.28572 -27.42857 0
v 0 -32 0
v -4.571429 -32 0
v -9.142858 -32 0
v -13.71429 -32 0
v -18.28572 -32 0
v -22.85714 -32 0
v -27.42857 -32 0
v -32 -32 0
v -36.57143 -32 0
v -41.14286 -32 0
v -45.71429 -32 0
v -50.28572 -32 0
v 0 -36.57143 0
v -4.571429 -36.57143 0
v -9.142858 -36.57143 0
v -13.71429 -36.57143 0
v -18.28572 -36.57143 0
v -22.85714 -36.57143 0
v -27.42857 -36.57143 0
v -32 -36.57143 0
v -36.57143 -36.57143 0
v -41.14286 -36.57143 0
v -45.71429 -36.57143 0
v -50.28572 -36.57143 0
v 0 -41.14286 0
v -4.571429 -41.14286 0
v -9.142858 -41.14286 0
v -13.71429 -41.14286 0
v -18.28572 -41.14286 0
v -22.85714 -41.14286 0
v -27.42857 -41.14286 0
v -32 -41.14286 0
v -36.57143 -41.14286 0
v -41.14286 -41.14286 0
v -45.71429 -41.14286 0
v -50.28572 -41.14286 0
v 0 -45.71429 0
v -4.571429 -45.71429 0
v -9.142858 -45.71429 0
v -13.71429 -45.71429 0
v -18.28572 -45.71429 0
v -22.85714 -45.71429 0
v -27.42857 -45.71429 0
v -32 -45.71429 0
v -36.57143 -45.71429 0
v -41.14286 -45.71429 0
v -45.71429 -45.71429 0
v -50.28572 -45.71429 0
v -9.142858 -9.142858 0
v -13.71429 -9.142858 0
v -18.28572 -9.142858 0
v -22.85714 -9.142858 0
v -27.42857 -9.142858 0
v -32 -9.142858 0
v -36.57143 -9.142858 0
v -41.14286 -9.142858 0

# Texture cooridinates (Count = 128)
vt 0.06250763 0.8125076
vt 0.1249924 0.8125076
vt 0.1249924 0.8749924
vt 0.06250763 0.8749924
vt 0.1875076 0.8125076
vt 0.2499924 0.8125076
vt 0.2499924 0.8749924
vt 0.1875076 0.8749924
vt 7.629395E-06 0.8125076
vt 0.06249237 0.8125076
vt 0.06249237 0.8749924
vt 7.629395E-06 0.8749924
vt 0.2500076 0.8750076
vt 0.3124924 0.8750076
vt 0.3124924 0.9374924
vt 0.2500076 0.9374924
vt 0.1250076 0.8750076
vt 0.1874924 0.8750076
vt 0.1874924 0.9374924
vt 0.1250076 0.9374924
vt 7.629395E-06 0.7500076
vt 0.06249237 0.7500076
vt 0.06249237 0.8124924
vt 7.629395E-06 0.8124924
vt 0.06250763 0.8750076
vt 0.1249924 0.8750076
vt 0.1249924 0.9374924
vt 0.06250763 0.9374924
vt 0.1875076 0.9375076
vt 0.2499924 0.9375076
vt 0.2499924 0.9999924
vt 0.1875076 0.9999924
vt 7.629395E-06 0.8750076
vt 0.06249237 0.8750076
vt 0.06249237 0.9374924
vt 7.629395E-06 0.9374924
vt 0.0001220703 0.0001220703
vt 0.9998779 0.0001220703
vt 0.9998779 0.9998779
vt 0.0001220703 0.9998779
vt 0.1875076 0.3125076
vt 0.2499924 0.3125076
vt 0.2499924 0.3749924
vt 0.1875076 0.3749924
vt 0.2500076 0.7500076
vt 0.3124924 0.7500076
vt 0.3124924 0.8124924
vt 0.2500076 0.8124924
vt 0.1875076 0.7500076
vt 0.2499924 0.7500076
vt 0.2499924 0.8124924
vt 0.1875076 0.8124924
vt 0.1250076 0.7500076
vt 0.1874924 0.7500076
vt 0.1874924 0.8124924
vt 0.1250076 0.8124924
vt 0.8125076 0.8125076
vt 0.8749924 0.8125076
vt 0.8749924 0.8749924
vt 0.8125076 0.8749924
vt 0.2500076 0.6875076
vt 0.3124924 0.6875076
vt 0.3124924 0.7499924
vt 0.2500076 0.7499924
vt 0.1875076 0.6875076
vt 0.2499924 0.6875076
vt 0.2499924 0.7499924
vt 0.1875076 0.7499924
vt 0.1250076 0.6875076
vt 0.1874924 0.6875076
vt 0.1874924 0.7499924
vt 0.1250076 0.7499924
vt 0.8750076 0.5000087
vt 0.9374924 0.5000087
vt 0.9374924 0.5714198
vt 0.8750076 0.5714198
vt 0.9375076 0.5000087
vt 0.9999924 0.5000087
vt 0.9999924 0.5714198
vt 0.9375076 0.5714198
vt 0.8750076 0.4285802
vt 0.9374924 0.4285802
vt 0.9374924 0.4999913
vt 0.8750076 0.4999913
vt 0.9375076 0.4285802
vt 0.9999924 0.4285802
vt 0.9999924 0.4999913
vt 0.9375076 0.4999913
vt 0.8750076 0.3571516
vt 0.9374924 0.3571516
vt 0.9374924 0.4285627
vt 0.8750076 0.4285627
vt 0.9375076 0.3571516
vt 0.9999924 0.3571516
vt 0.9999924 0.4285627
vt 0.9375076 0.4285627
vt 0.2500076 0.5714373
vt 0.3124924 0.5714373
vt 0.3124924 0.6428484
vt 0.2500076 0.6428484
vt 0.3125076 0.5714373
vt 0.3749924 0.5714373
vt 0.3749924 0.6428484
vt 0.3125076 0.6428484
vt 0.5625076 0.5714373
vt 0.6249924 0.5714373
vt 0.6249924 0.6428484
vt 0.5625076 0.6428484
vt 0.2500076 0.5000087
vt 0.3124924 0.5000087
vt 0.3124924 0.5714198
vt 0.2500076 0.5714198
vt 0.3125076 0.5000087
vt 0.3749924 0.5000087
vt 0.3749924 0.5714198
vt 0.3125076 0.5714198
vt 0.6250076 0.5714373
vt 0.6874924 0.5714373
vt 0.6874924 0.6428484
vt 0.6250076 0.6428484
vt 0.2500076 0.4285802
vt 0.3124924 0.4285802
vt 0.3124924 0.4999913
vt 0.2500076 0.4999913
vt 0.3125076 0.4285802
vt 0.3749924 0.4285802
vt 0.3749924 0.4999913
vt 0.3125076 0.4999913

# Normal
vn 0 0 -1

# Groups (Count = 3)

g mesh_0001
f 1/1/1 2/2/1 3/3/1 4/4/1
f 2/5/1 5/6/1 6/7/1 3/8/1
f 5/5/1 7/6/1 8/7/1 6/8/1
f 7/5/1 9/6/1 10/7/1 8/8/1
f 9/5/1 11/6/1 12/7/1 10/8/1
f 11/5/1 13/6/1 14/7/1 12/8/1
f 13/5/1 15/6/1 16/7/1 14/8/1
f 15/5/1 17/6/1 18/7/1 16/8/1
f 17/5/1 19/6/1 20/7/1 18/8/1
f 19/5/1 21/6/1 22/7/1 20/8/1
f 21/9/1 23/10/1 24/11/1 22/12/1
f 25/13/1 26/14/1 2/15/1 1/16/1
f 27/17/1 28/18/1 23/19/1 21/20/1
f 29/13/1 30/14/1 26/15/1 25/16/1
f 31/17/1 32/18/1 28/19/1 27/20/1
f 33/13/1 34/14/1 30/15/1 29/16/1
f 34/21/1 35/22/1 36/23/1 30/24/1
f 35/21/1 37/22/1 38/23/1 36/24/1
f 37/21/1 39/22/1 40/23/1 38/24/1
f 39/21/1 41/22/1 42/23/1 40/24/1
f 41/21/1 43/22/1 44/23/1 42/24/1
f 43/21/1 45/22/1 46/23/1 44/24/1
f 45/21/1 47/22/1 48/23/1 46/24/1
f 47/21/1 49/22/1 50/23/1 48/24/1
f 49/21/1 51/22/1 31/23/1 50/24/1
f 51/17/1 52/18/1 32/19/1 31/20/1
f 53/13/1 54/14/1 34/15/1 33/16/1
f 54/21/1 55/22/1 35/23/1 34/24/1
f 55/21/1 56/22/1 37/23/1 35/24/1
f 56/21/1 57/22/1 39/23/1 37/24/1
f 57/21/1 58/22/1 41/23/1 39/24/1
f 58/21/1 59/22/1 43/23/1 41/24/1
f 59/21/1 60/22/1 45/23/1 43/24/1
f 60/21/1 61/22/1 47/23/1 45/24/1
f 61/21/1 62/22/1 49/23/1 47/24/1
f 62/21/1 63/22/1 51/23/1 49/24/1
f 63/17/1 64/18/1 52/19/1 51/20/1
f 65/13/1 66/14/1 54/15/1 53/16/1
f 66/21/1 67/22/1 55/23/1 54/24/1
f 67/21/1 68/22/1 56/23/1 55/24/1
f 68/21/1 69/22/1 57/23/1 56/24/1
f 69/21/1 70/22/1 58/23/1 57/24/1
f 70/21/1 71/22/1 59/23/1 58/24/1
f 71/21/1 72/22/1 60/23/1 59/24/1
f 72/21/1 73/22/1 61/23/1 60/24/1
f 73/21/1 74/22/1 62/23/1 61/24/1
f 74/21/1 75/22/1 63/23/1 62/24/1
f 75/17/1 76/18/1 64/19/1 63/20/1
f 77/13/1 78/14/1 66/15/1 65/16/1
f 78/21/1 79/22/1 67/23/1 66/24/1
f 79/21/1 80/22/1 68/23/1 67/24/1
f 80/21/1 81/22/1 69/23/1 68/24/1
f 81/21/1 82/22/1 70/23/1 69/24/1
f 82/21/1 83/22/1 71/23/1 70/24/1
f 83/21/1 84/22/1 72/23/1 71/24/1
f 84/21/1 85/22/1 73/23/1 72/24/1
f 85/21/1 86/22/1 74/23/1 73/24/1
f 86/21/1 87/22/1 75/23/1 74/24/1
f 87/17/1 88/18/1 76/19/1 75/20/1
f 89/13/1 90/14/1 78/15/1 77/16/1
f 90/21/1 91/22/1 79/23/1 78/24/1
f 91/21/1 92/22/1 80/23/1 79/24/1
f 92/21/1 93/22/1 81/23/1 80/24/1
f 93/21/1 94/22/1 82/23/1 81/24/1
f 94/21/1 95/22/1 83/23/1 82/24/1
f 95/21/1 96/22/1 84/23/1 83/24/1
f 96/21/1 97/22/1 85/23/1 84/24/1
f 97/21/1 98/22/1 86/23/1 85/24/1
f 98/21/1 99/22/1 87/23/1 86/24/1
f 99/17/1 100/18/1 88/19/1 87/20/1
f 101/13/1 102/14/1 90/15/1 89/16/1
f 102/21/1 103/22/1 91/23/1 90/24/1
f 103/21/1 104/22/1 92/23/1 91/24/1
f 104/21/1 105/22/1 93/23/1 92/24/1
f 105/21/1 106/22/1 94/23/1 93/24/1
f 106/21/1 107/22/1 95/23/1 94/24/1
f 107/21/1 108/22/1 96/23/1 95/24/1
f 108/21/1 109/22/1 97/23/1 96/24/1
f 109/21/1 110/22/1 98/23/1 97/24/1
f 110/21/1 111/22/1 99/23/1 98/24/1
f 111/17/1 112/18/1 100/19/1 99/20/1
f 113/25/1 114/26/1 102/27/1 101/28/1
f 114/29/1 115/30/1 103/31/1 102/32/1
f 115/29/1 116/30/1 104/31/1 103/32/1
f 116/29/1 117/30/1 105/31/1 104/32/1
f 117/29/1 118/30/1 106/31/1 105/32/1
f 118/29/1 119/30/1 107/31/1 106/32/1
f 119/21/1 120/22/1 108/23/1 107/24/1
f 120/29/1 121/30/1 109/31/1 108/32/1
f 121/29/1 122/30/1 110/31/1 109/32/1
f 122/29/1 123/30/1 111/31/1 110/32/1
f 123/33/1 124/34/1 112/35/1 111/36/1

g mesh_0002
f 26/37/1 125/38/1 5/39/1 2/40/1
f 125/37/1 126/38/1 7/39/1 5/40/1
f 126/37/1 127/38/1 9/39/1 7/40/1
f 127/37/1 128/38/1 11/39/1 9/40/1
f 128/37/1 129/38/1 13/39/1 11/40/1
f 129/37/1 130/38/1 15/39/1 13/40/1
f 130/37/1 131/38/1 17/39/1 15/40/1
f 131/37/1 132/38/1 19/39/1 17/40/1
f 132/37/1 27/38/1 21/39/1 19/40/1
f 30/37/1 36/38/1 125/39/1 26/40/1
f 36/37/1 38/38/1 126/39/1 125/40/1
f 38/37/1 40/38/1 127/39/1 126/40/1
f 40/37/1 42/38/1 128/39/1 127/40/1
f 42/37/1 44/38/1 129/39/1 128/40/1
f 44/37/1 46/38/1 130/39/1 129/40/1
f 46/37/1 48/38/1 131/39/1 130/40/1
f 48/37/1 50/38/1 132/39/1 131/40/1
f 50/37/1 31/38/1 27/39/1 132/40/1

g mesh_0003
f 127/41/1 128/42/1 11/43/1 9/44/1
f 44/45/1 46/46/1 130/47/1 129/48/1
f 46/49/1 48/50/1 131/51/1 130/52/1
f 48/53/1 50/54/1 132/55/1 131/56/1
f 50/49/1 31/50/1 27/51/1 132/52/1
f 34/57/1 35/58/1 36/59/1 30/60/1
f 43/61/1 45/62/1 46/63/1 44/64/1
f 45/65/1 47/66/1 48/67/1 46/68/1
f 47/69/1 49/70/1 50/71/1 48/72/1
f 49/65/1 51/66/1 31/67/1 50/68/1

g mesh_0004
f 36/73/1 38/74/1 126/75/1 125/76/1
f 38/77/1 40/78/1 127/79/1 126/80/1
f 35/81/1 37/82/1 38/83/1 36/84/1
f 37/85/1 39/86/1 40/87/1 38/88/1
f 55/89/1 56/90/1 37/91/1 35/92/1
f 56/93/1 57/94/1 39/95/1 37/96/1
f 79/97/1 80/98/1 68/99/1 67/100/1
f 80/101/1 81/102/1 69/103/1 68/104/1
f 90/105/1 91/106/1 79/107/1 78/108/1
f 91/109/1 92/110/1 80/111/1 79/112/1
f 92/113/1 93/114/1 81/115/1 80/116/1
f 93/117/1 94/118/1 82/119/1 81/120/1
f 102/105/1 103/106/1 91/107/1 90/108/1
f 103/121/1 104/122/1 92/123/1 91/124/1
f 104/125/1 105/126/1 93/127/1 92/128/1
f 105/117/1 106/118/1 94/119/1 93/120/1

g mesh_0005
f 1/37/1 2/38/1 3/39/1 4/40/1
f 2/37/1 5/38/1 6/39/1 3/40/1
f 5/37/1 7/38/1 8/39/1 6/40/1
f 7/37/1 9/38/1 10/39/1 8/40/1
f 9/37/1 11/38/1 12/39/1 10/40/1
f 11/37/1 13/38/1 14/39/1 12/40/1
f 13/37/1 15/38/1 16/39/1 14/40/1
f 15/37/1 17/38/1 18/39/1 16/40/1
f 17/37/1 19/38/1 20/39/1 18/40/1
f 19/37/1 21/38/1 22/39/1 20/40/1
f 21/37/1 23/38/1 24/39/1 22/40/1
f 25/37/1 26/38/1 2/39/1 1/40/1
f 26/37/1 125/38/1 5/39/1 2/40/1
f 125/37/1 126/38/1 7/39/1 5/40/1
f 126/37/1 127/38/1 9/39/1 7/40/1
f 127/37/1 128/38/1 11/39/1 9/40/1
f 128/37/1 129/38/1 13/39/1 11/40/1
f 129/37/1 130/38/1 15/39/1 13/40/1
f 130/37/1 131/38/1 17/39/1 15/40/1
f 131/37/1 132/38/1 19/39/1 17/40/1
f 132/37/1 27/38/1 21/39/1 19/40/1
f 27/37/1 28/38/1 23/39/1 21/40/1
f 29/37/1 30/38/1 26/39/1 25/40/1
f 30/37/1 36/38/1 125/39/1 26/40/1
f 36/37/1 38/38/1 126/39/1 125/40/1
f 38/37/1 40/38/1 127/39/1 126/40/1
f 40/37/1 42/38/1 128/39/1 127/40/1
f 42/37/1 44/38/1 129/39/1 128/40/1
f 44/37/1 46/38/1 130/39/1 129/40/1
f 46/37/1 48/38/1 131/39/1 130/40/1
f 48/37/1 50/38/1 132/39/1 131/40/1
f 50/37/1 31/38/1 27/39/1 132/40/1
f 31/37/1 32/38/1 28/39/1 27/40/1
f 33/37/1 34/38/1 30/39/1 29/40/1
f 34/37/1 35/38/1 36/39/1 30/40/1
f 35/37/1 37/38/1 38/39/1 36/40/1
f 37/37/1 39/38/1 40/39/1 38/40/1
f 43/37/1 45/38/1 46/39/1 44/40/1
f 45/37/1 47/38/1 48/39/1 46/40/1
f 47/37/1 49/38/1 50/39/1 48/40/1
f 49/37/1 51/38/1 31/39/1 50/40/1
f 51/37/1 52/38/1 32/39/1 31/40/1
f 53/37/1 54/38/1 34/39/1 33/40/1
f 55/37/1 56/38/1 37/39/1 35/40/1
f 56/37/1 57/38/1 39/39/1 37/40/1
f 63/37/1 64/38/1 52/39/1 51/40/1
f 65/37/1 66/38/1 54/39/1 53/40/1
f 75/37/1 76/38/1 64/39/1 63/40/1
f 77/37/1 78/38/1 66/39/1 65/40/1
f 79/37/1 80/38/1 68/39/1 67/40/1
f 80/37/1 81/38/1 69/39/1 68/40/1
f 87/37/1 88/38/1 76/39/1 75/40/1
f 89/37/1 90/38/1 78/39/1 77/40/1
f 91/37/1 92/38/1 80/39/1 79/40/1
f 92/37/1 93/38/1 81/39/1 80/40/1
f 99/37/1 100/38/1 88/39/1 87/40/1
f 101/37/1 102/38/1 90/39/1 89/40/1
f 103/37/1 104/38/1 92/39/1 91/40/1
f 104/37/1 105/38/1 93/39/1 92/40/1
f 111/37/1 112/38/1 100/39/1 99/40/1
f 113/37/1 114/38/1 102/39/1 101/40/1
f 114/37/1 115/38/1 103/39/1 102/40/1
f 115/37/1 116/38/1 104/39/1 103/40/1
f 116/37/1 117/38/1 105/39/1 104/40/1
f 117/37/1 118/38/1 106/39/1 105/40/1
f 118/37/1 119/38/1 107/39/1 106/40/1
f 120/37/1 121/38/1 109/39/1 108/40/1
f 121/37/1 122/38/1 110/39/1 109/40/1
f 122/37/1 123/38/1 111/39/1 110/40/1
f 123/37/1 124/38/1 112/39/1 111/40/1

